<?xml version="1.0" encoding="UTF-8"?>
<svg width="630px" height="90px" viewBox="0 0 630 90" version="1.1" xmlns="http://www.w3.org/2000/svg" xmlns:xlink="http://www.w3.org/1999/xlink">
    <!-- Generator: Sketch 48.1 (47250) - http://www.bohemiancoding.com/sketch -->
    <title>课程/button@3x</title>
    <desc>Created with Sketch.</desc>
    <defs>
        <linearGradient x1="0%" y1="0%" x2="64.4903963%" y2="74.1554171%" id="linearGradient-1">
            <stop stop-color="#ECC89A" offset="0%"></stop>
            <stop stop-color="#DDAF6E" offset="100%"></stop>
        </linearGradient>
        <rect id="path-2" x="0" y="0" width="630" height="90" rx="8"></rect>
        <linearGradient x1="16.3831911%" y1="18.3676467%" x2="85.5914207%" y2="70.6061748%" id="linearGradient-4">
            <stop stop-color="#EEDDBB" offset="0%"></stop>
            <stop stop-color="#E7C684" offset="100%"></stop>
        </linearGradient>
    </defs>
    <g id="Symbols" stroke="none" stroke-width="1" fill="none" fill-rule="evenodd">
        <g id="课程/button">
            <g id="Group-2-Copy-2">
                <g id="Path-6">
                    <mask id="mask-3" fill="white">
                        <use xlink:href="#path-2"></use>
                    </mask>
                    <use id="Mask" fill="url(#linearGradient-1)" xlink:href="#path-2"></use>
                    <polygon fill="#2B2B2E" mask="url(#mask-3)" points="446.079619 -10.5987052 379 108.17712 674.655499 108.17712 674.655499 -15"></polygon>
                </g>
                <path d="M461.223271,34.2273707 L474.355448,34.2273707 C473.851748,32.6271552 473.312069,31.1336207 472.700434,29.7112069 L477.089819,29 C477.593519,30.5646552 478.06124,32.3071121 478.56494,34.2273707 L491.697117,34.2273707 L491.697117,37.8189655 L461.223271,37.8189655 L461.223271,34.2273707 Z M460,56.4170259 L477.629497,56.4170259 C479.680276,51.794181 481.479204,46.1045259 483.062261,39.2769397 L487.055882,40.34375 C485.688696,46.3534483 483.997703,51.7230603 481.982904,56.4170259 L492.920388,56.4170259 L492.920388,60.0086207 L460,60.0086207 L460,56.4170259 Z M469.858127,39.205819 C471.441184,43.7931034 472.808369,49.0560345 474.031641,54.9590517 L469.966063,55.9547414 C468.886706,50.6206897 467.555499,45.4644397 465.900485,40.5215517 L469.858127,39.205819 Z M501.087522,40.2726293 L501.087522,44.0775862 L508.211278,44.0775862 L508.211278,40.2726293 L501.087522,40.2726293 Z M508.211278,36.9655172 L508.211278,33.3739224 L501.087522,33.3739224 L501.087522,36.9655172 L508.211278,36.9655172 Z M497.12988,60.862069 L495.834652,57.3060345 C496.87803,56.950431 497.417709,56.3103448 497.417709,55.4213362 L497.417709,30.03125 L511.737178,30.03125 L511.737178,47.5269397 L501.087522,47.5269397 L501.087522,56.0969828 C503.606022,55.3857759 505.872672,54.6034483 507.959428,53.8211207 C507.41975,52.8965517 506.880071,52.0075431 506.304414,51.1185345 L509.146721,49.3405172 C511.341414,52.6831897 513.032406,55.5991379 514.219699,58.0883621 L511.305435,60.1153017 C510.801735,59.0484914 510.298035,57.981681 509.722378,56.9148707 C506.016586,58.4084052 501.807094,59.7241379 497.12988,60.862069 Z M523.789997,56.9859914 L521.055626,56.9859914 L520.048227,53.3943966 L522.530748,53.5366379 C523.538147,53.5366379 524.077826,53.0387931 524.077826,52.0786638 L524.077826,33.5872845 L519.004848,33.5872845 L519.004848,61.7510776 L515.263077,61.7510776 L515.263077,30.1023707 L527.819597,30.1023707 L527.819597,52.9321121 C527.819597,55.6346983 526.452411,56.9859914 523.789997,56.9859914 Z M534.151824,30.7068966 L562.646849,30.7068966 L562.646849,34.2984914 L556.998214,34.2984914 L556.998214,42.4773707 L564.445777,42.4773707 L564.445777,46.0689655 L556.998214,46.0689655 L556.998214,61.3243534 L553.220464,61.3243534 L553.220464,46.0689655 L543.902016,46.0689655 C543.54223,49.5538793 542.822659,52.5053879 541.77928,54.887931 C540.376116,57.875 538.073488,60.1864224 534.871396,61.7866379 L532.820618,58.6217672 C535.734881,56.950431 537.677724,54.8523707 538.685124,52.3631466 C539.332738,50.5851293 539.800459,48.487069 540.088288,46.0689655 L532.316918,46.0689655 L532.316918,42.4773707 L540.340138,42.4773707 C540.340138,42.2640086 540.376116,42.0862069 540.376116,41.8728448 L540.376116,34.2984914 L534.151824,34.2984914 L534.151824,30.7068966 Z M544.189844,34.2984914 L544.189844,41.8728448 C544.189844,42.0862069 544.153866,42.2640086 544.153866,42.4773707 L553.220464,42.4773707 L553.220464,34.2984914 L544.189844,34.2984914 Z M571.353662,29.2133621 C573.728247,31.0980603 575.779025,32.9827586 577.434039,34.8318966 L574.807604,37.3922414 C573.40444,35.6142241 571.38964,33.6584052 568.799183,31.5959052 L571.353662,29.2133621 Z M591.861444,61.2532328 C589.882623,61.2532328 587.723909,61.2176724 585.421281,61.1821121 C583.082674,61.1465517 581.17581,60.9331897 579.66471,60.5775862 C578.225568,60.1508621 576.966318,59.3329741 575.886961,58.1239224 C575.383261,57.5193966 574.951518,57.2349138 574.555754,57.2349138 C573.836183,57.2349138 572.612911,58.799569 570.813983,62 L568.043634,59.4752155 C569.842562,56.6303879 571.425619,54.8168103 572.864761,54.0344828 L572.864761,44.2909483 L568.115591,44.2909483 L568.115591,40.8771552 L576.354682,40.8771552 L576.354682,54.3900862 L576.750447,54.78125 C577.577954,55.705819 578.405461,56.4170259 579.268946,56.8793103 C580.312325,57.4127155 581.895381,57.6971983 584.018117,57.768319 C586.104874,57.8038793 588.515438,57.8394397 591.321766,57.8394397 C593.120694,57.8394397 594.919622,57.8038793 596.790508,57.8038793 C598.625415,57.7327586 600.028579,57.6616379 601,57.5905172 L600.100536,61.2532328 L591.861444,61.2532328 Z M585.493238,32.9827586 L578.693289,32.9827586 L578.693289,29.924569 L598.589436,29.924569 L598.589436,32.5204741 C596.538658,34.2273707 594.343965,35.7209052 591.96938,36.9655172 L592.041337,37.0366379 L599.309007,37.0366379 L599.309007,52.7898707 C599.309007,54.9946121 598.085736,56.1325431 595.639194,56.1325431 L592.940801,56.1325431 L592.113294,53.0743534 L594.595815,53.1810345 C595.387344,53.1810345 595.783108,52.7898707 595.783108,52.0431034 L595.783108,50.549569 L590.96198,50.549569 L590.96198,56.3103448 L587.508038,56.3103448 L587.508038,50.549569 L582.830824,50.549569 L582.830824,56.3459052 L579.304925,56.3459052 L579.304925,37.0366379 L587.292166,37.0366379 C586.176831,36.325431 584.95356,35.5786638 583.586374,34.8318966 L585.493238,32.9827586 Z M589.70273,35.2586207 C591.069916,34.5474138 592.329166,33.8006466 593.516458,32.9827586 L586.320745,32.9827586 C587.544016,33.7650862 588.69533,34.5118534 589.70273,35.2586207 Z M582.830824,45.3221983 L582.830824,47.5625 L587.508038,47.5625 L587.508038,45.3221983 L582.830824,45.3221983 Z M590.96198,45.3221983 L590.96198,47.5625 L595.783108,47.5625 L595.783108,45.3221983 L590.96198,45.3221983 Z M595.783108,42.3351293 L595.783108,40.0948276 L590.96198,40.0948276 L590.96198,42.3351293 L595.783108,42.3351293 Z M587.508038,42.3351293 L587.508038,40.0948276 L582.830824,40.0948276 L582.830824,42.3351293 L587.508038,42.3351293 Z" id="立即开通" fill="url(#linearGradient-4)"></path>
                <text id="开通会员解锁所有课程-原价399元/年" font-family="PingFangSC-Regular, PingFang SC" font-size="26" font-weight="normal" line-spacing="39" fill="#FFFFFF">
                    <tspan x="26.872" y="34">开通会员解锁所有课程</tspan>
                    <tspan x="25" y="73">原价</tspan>
                    <tspan x="60.7303984" y="73" font-family="Tahoma-Bold, Tahoma" font-weight="bold" text-decoration="line-through">399</tspan>
                    <tspan x="126.664062" y="73" text-decoration="line-through">元</tspan>
                    <tspan x="138.946219" y="73" font-family="Tahoma" text-decoration="line-through">/</tspan>
                    <tspan x="162.604492" y="73" text-decoration="line-through">年</tspan>
                    <tspan x="188.604492" y="73"> </tspan>
                    <tspan x="196.974492" y="73" font-size="30">超值价</tspan>
                    <tspan x="268.201875" y="71.0371094" font-family="Tahoma-Bold, Tahoma" font-size="30" font-weight="bold">199</tspan>
                    <tspan x="328.450898" y="71.9746094" font-family="Tahoma" font-size="30">/</tspan>
                    <tspan x="355.748906" y="73" font-size="30">年</tspan>
                </text>
            </g>
        </g>
    </g>
</svg>