<?xml version="1.0" encoding="UTF-8"?>
<svg width="46px" height="52px" viewBox="0 0 46 52" version="1.1" xmlns="http://www.w3.org/2000/svg" xmlns:xlink="http://www.w3.org/1999/xlink">
    <!-- Generator: Sketch 48 (47235) - http://www.bohemiancoding.com/sketch -->
    <title>签到/award@3x</title>
    <desc>Created with Sketch.</desc>
    <defs>
        <polygon id="path-1" points="0.00378600823 0.058204461 45.9923859 0.058204461 45.9923859 45.5802862 0.00378600823 45.5802862"></polygon>
    </defs>
    <g id="Symbols" stroke="none" stroke-width="1" fill="none" fill-rule="evenodd">
        <g id="签到/award">
            <g id="奖杯-3" transform="translate(0.000000, 1.000000)">
                <polygon id="Fill-1" fill="#FFB300" points="19.8085213 37.5061078 26.194192 37.5061078 26.194192 31.110632 19.8085213 31.110632"></polygon>
                <path d="M27.9307078,39.9075948 L18.0668313,39.9075948 L18.0668313,36.8134052 C18.0668313,36.2320558 18.5413443,35.7568773 19.1218025,35.7568773 L26.8806584,35.7568773 C27.4611166,35.7568773 27.9356296,36.2320558 27.9356296,36.8134052 L27.9356296,39.9075948 L27.9307078,39.9075948 Z" id="Fill-2" fill="#FFCA28"></path>
                <path d="M32.8978244,50.9999368 L13.0997147,50.9999368 C12.518941,50.9999368 12.0444911,50.5246952 12.0444911,49.9433457 L12.0444911,40.9390335 C12.0444911,40.3576208 12.518941,39.8824424 13.0997147,39.8824424 L32.9029986,39.8824424 C33.4835199,39.8824424 33.9579698,40.3576208 33.9579698,40.9390335 L33.9579698,49.9433457 C33.9527956,50.5298773 33.4835199,50.9999368 32.8978244,50.9999368 Z" id="Fill-3" fill="#455A64"></path>
                <g id="Group-7" transform="translate(0.000000, 2.780669)">
                    <mask id="mask-2" fill="white">
                        <use xlink:href="#path-1"></use>
                    </mask>
                    <g id="Clip-5"></g>
                    <path d="M29.3743759,45.5802862 L16.6231632,45.5802862 C16.3303786,45.5802862 16.0981701,45.342539 16.0981701,45.054487 L16.0981701,39.9532862 C16.0981701,39.6599888 16.3353004,39.427487 16.6231632,39.427487 L29.3743759,39.427487 C29.6671605,39.427487 29.899369,39.6649182 29.899369,39.9532862 L29.899369,45.0493048 C29.899369,45.342539 29.6671605,45.5802862 29.3743759,45.5802862 Z" id="Fill-4" fill="#CFD8DC" mask="url(#mask-2)"></path>
                    <path d="M10.1364691,2.69712268 L10.1364691,17.0959331 C5.90629904,16.5044721 2.64010974,12.8592677 2.64010974,8.46094424 L2.64010974,2.69712268 L10.1364691,2.69712268 Z M12.7713416,0.058204461 L2.11013169,0.058204461 C0.944041152,0.058204461 0,1.00369517 0,2.17132342 L0,8.46587361 C0,14.7401375 5.07829904,19.8262342 11.3430069,19.8262342 L12.7713416,19.8262342 L12.7713416,0.058204461 Z M43.3574294,2.69712268 L43.3574294,8.19798141 C43.3574294,12.6469888 40.1065734,16.3528625 35.86107,17.0557398 L35.86107,2.69712268 L43.3574294,2.69712268 Z M43.8874074,0.058204461 L33.2259451,0.058204461 L33.2259451,19.821052 L34.3920357,19.821052 C40.7979616,19.821052 45.9923649,14.6186729 45.9923649,8.20297398 L45.9923649,2.17132342 C45.9975391,1.00369517 45.0485761,0.058204461 43.8874074,0.058204461 Z" id="Fill-6" fill="#FFB300" mask="url(#mask-2)"></path>
                </g>
                <path d="M22.998738,32.3795019 C14.7856241,32.3795019 8.12736077,25.7110149 8.12736077,17.4852268 L8.12736077,1.01873606 C8.12736077,0.46772119 8.57669684,0.0176951673 9.12686694,0.0176951673 L36.8654979,0.0176951673 C37.4159204,0.0176951673 37.8650041,0.46772119 37.8650041,1.01873606 L37.8650041,17.4852268 C37.8701783,25.7110149 31.211915,32.3795019 22.998738,32.3795019 Z" id="Fill-8" fill="#FFCA28"></path>
                <path d="M36.8958491,22.7989591 L29.4653032,13.0212416 L19.0412236,20.5036431 L27.4712126,31.6971636 C29.6873525,30.9640149 31.2370288,29.983197 32.7161591,28.7496543 C34.4777888,27.2783011 35.8914211,25.321658 36.8958491,22.7989591 Z" id="Fill-9" fill="#FFB806"></path>
                <path d="M23.51862,8.63764312 L25.0988368,11.8380037 C25.1744938,11.9947955 25.325808,12.1009033 25.4973772,12.1263717 L29.0260631,12.6420595 C29.4601289,12.702539 29.6319506,13.2384498 29.3189108,13.5418587 L26.7645542,16.0344126 C26.6383539,16.1556245 26.5828889,16.3326394 26.6132401,16.4995428 L27.2138903,20.01829 C27.2895473,20.4480929 26.8352894,20.7766543 26.4465926,20.574487 L23.044107,18.7847472 L19.6418738,20.574487 C19.253177,20.7766543 18.8038409,20.4480929 18.8745761,20.01829 L19.4752894,16.4995428 C19.5055775,16.3274572 19.4498601,16.1556245 19.3236598,16.0344126 L16.7696187,13.5418587 C16.4565789,13.2384498 16.6281481,12.702539 17.0621509,12.6420595 L20.5908368,12.1263717 C20.762406,12.1009033 20.9087984,11.9947955 20.9896927,11.8380037 L22.5696571,8.63764312 C22.7665926,8.24342007 23.3268587,8.24342007 23.51862,8.63764312 Z" id="Fill-10" fill="#FFF8E1"></path>
            </g>
        </g>
    </g>
</svg>