<?xml version="1.0" encoding="UTF-8"?>
<svg width="530px" height="120px" viewBox="0 0 530 120" version="1.1" xmlns="http://www.w3.org/2000/svg" xmlns:xlink="http://www.w3.org/1999/xlink">
    <!-- Generator: Sketch 48 (47235) - http://www.bohemiancoding.com/sketch -->
    <title>签到/ribbon@3x</title>
    <desc>Created with Sketch.</desc>
    <defs>
        <polygon id="path-1" points="0.85347606 0.096 139.537635 0.096 139.537635 91.5402353 0.85347606 91.5402353"></polygon>
        <linearGradient x1="0%" y1="17.9217339%" x2="79.2384291%" y2="88.0370361%" id="linearGradient-3">
            <stop stop-color="#FFE129" offset="0%"></stop>
            <stop stop-color="#FFC226" offset="100%"></stop>
        </linearGradient>
        <polygon id="path-4" points="0.0196335582 0.261176471 430.978024 0.261176471 430.978024 107.269694 0.0196335582 107.269694"></polygon>
        <linearGradient x1="0%" y1="17.9217339%" x2="100%" y2="17.9217336%" id="linearGradient-6">
            <stop stop-color="#FFE129" offset="0%"></stop>
            <stop stop-color="#FFC226" offset="100%"></stop>
        </linearGradient>
    </defs>
    <g id="Symbols" stroke="none" stroke-width="1" fill="none" fill-rule="evenodd">
        <g id="签到/ribbon">
            <g id="Group-5-Copy" transform="translate(2.000000, 0.000000)">
                <g id="Page-1">
                    <g id="Group-3" transform="translate(386.935893, 27.445553)">
                        <mask id="mask-2" fill="white">
                            <use xlink:href="#path-1"></use>
                        </mask>
                        <g id="Clip-2"></g>
                        <path d="M115.057103,30.048 C112.941361,30.7214118 111.070555,33.2287059 109.676953,35.6174118 C108.975928,36.816 108.393149,37.9764706 107.907499,38.8574118 C107.409181,39.7468235 107.041777,40.3058824 106.51812,40.5007059 C106.501228,40.7251765 106.535012,40.92 106.585688,41.0047059 C106.602581,41.0174118 106.611027,41.0470588 106.623696,41.0428235 C106.640588,41.0301176 106.649034,41.0258824 106.649034,41.0047059 C106.65748,40.9708235 106.649034,40.9411765 106.636365,40.9072941 C106.640588,40.8691765 106.585688,40.8014118 106.594134,40.8098824 C107.079784,41.1444706 107.548541,41.496 108.004629,41.8644706 C108.912583,42.5971765 109.765636,43.4018824 110.546898,44.2362353 C112.100977,45.9049412 113.355219,47.7134118 114.161819,49.416 C114.613684,49.1068235 116.311346,50.1952941 116.737873,52.2197647 C118.266613,52.1689412 121.666159,56.2941176 123.714332,60.5929412 C124.069067,60.1905882 127.350368,63.5957647 128.106292,66.1962353 C128.114738,66.2047059 128.114738,66.2089412 128.118961,66.2089412 C128.165415,66.2512941 128.199199,66.2936471 128.237206,66.3487059 C130.28538,68.6865882 132.409568,72.0451765 132.223755,73.9891765 C132.536259,74.1289412 132.899441,74.5185882 133.271068,75.0522353 C133.651142,75.5816471 134.048107,76.2635294 134.377504,76.9835294 C134.71957,77.6992941 135.015183,78.4701176 135.20522,79.1731765 C135.407925,79.8677647 135.526171,80.4988235 135.505055,80.952 C135.973813,80.7910588 136.34544,81.384 136.273648,83.0272941 C136.522808,83.6329412 136.885989,83.2941176 137.211163,83.2517647 C137.629244,84.3952941 137.798165,85.3524706 137.962864,86.1656471 C138.081109,86.9915294 138.131785,87.6861176 138.190908,88.3722353 L138.423175,91.0362353 L136.273648,90.2654118 C134.892715,89.7783529 133.570904,89.3548235 131.024412,89.0583529 C135.027852,88.5204706 124.499817,87.72 126.974518,87.0635294 C123.511626,86.5934118 123.473619,87.8767059 121.201624,85.5430588 C121.172063,86.3604706 119.976943,86.0131765 118.313066,85.5261176 C116.649189,85.0644706 114.499662,84.4672941 112.633079,84.8315294 C113.845091,84.624 112.029185,84.0691765 113.24542,84.1030588 C112.789332,83.7303529 112.265675,83.8489412 110.601798,83.4423529 C110.922749,83.8404706 111.699788,84.0945882 112.683756,84.2936471 C112.155876,84.1962353 110.770719,84.1369412 109.482693,84.0310588 C108.194666,83.8955294 107.003769,83.6922353 106.843294,83.2517647 C106.412544,83.9124706 105.335669,83.8870588 104.102542,83.7303529 C102.865192,83.5821176 101.454697,83.3661176 100.407383,83.5397647 C93.9545806,82.608 89.0136256,82.1844706 84.1317933,82.1505882 C82.9113352,82.1590588 81.6908771,82.1929412 80.4577498,82.2437647 C79.2203996,82.2988235 77.9661572,82.4428235 76.6654614,82.5825882 C74.0682928,82.8621176 71.3148717,83.3576471 68.2236076,84.1284706 C58.3923742,84.6070588 48.0923836,86.6696471 41.5086667,88.3129412 C41.6438039,87.7835294 41.0821398,87.8174118 40.6429438,87.7538824 C40.5078066,87.7750588 40.3642233,87.8004706 40.224863,87.8258824 C39.9757038,88.3468235 38.7214614,88.9905882 38.2020276,88.1985882 C37.9444223,88.2409412 37.695263,88.2875294 37.4461038,88.3383529 C37.247621,88.4145882 37.0491382,88.44 36.8337632,88.4484706 C35.8920256,88.6136471 34.9629572,88.7788235 34.0465579,88.944 C33.8185138,89.3167059 32.4502493,89.6385882 30.8117105,89.8630588 C28.9324584,90.1256471 26.7111402,90.24 25.4400056,90.2654118 C25.1190547,90.3077647 24.8023268,90.3416471 24.4855989,90.384 C24.2448857,90.5661176 24.3969151,90.888 24.3757999,91.1421176 C21.1113913,91.4258824 18.5311148,91.5317647 16.3013505,91.5402353 C14.0758093,91.5402353 12.2050033,91.4512941 10.3553125,91.2014118 C9.43046705,91.0616471 8.51406771,90.888 7.56810711,90.5957647 C6.62214651,90.3077647 5.6424016,89.9096471 4.67532581,89.2574118 C3.70825002,88.6136471 2.74117422,87.6861176 2.06126504,86.4028235 C1.35179459,85.1449412 0.975944174,83.5990588 0.85347606,81.9218824 C1.13641963,82.4258824 1.28000294,82.5487059 1.32223332,82.4343529 C1.38135586,82.3157647 1.30111813,81.9769412 1.28000294,81.456 C1.21243432,80.9435294 1.19976521,80.2616471 1.30111813,79.5374118 C1.37290978,79.1774118 1.42358624,78.8004706 1.55872347,78.4531765 C1.69808374,78.1143529 1.82055185,77.7543529 2.0021425,77.4790588 C1.93879693,78.0423529 2.23018658,78.3642353 2.67782865,78.504 C2.94810311,77.28 3.86450244,75.9458824 5.16097523,74.9971765 C6.44900194,74.0442353 8.03264134,73.4047059 9.65428808,73.0023529 C12.9271428,72.2061176 16.3942574,72.3162353 19.3588303,72.8795294 C19.8951562,72.6804706 19.8655949,72.2315294 20.9509158,72.2823529 C20.7988864,73.2691765 22.5472243,72.5872941 25.8665325,72.5237647 C32.5642714,72.4051765 40.4486841,72.384 48.029038,72.9854118 C51.5763903,73.2776471 54.9168136,73.6969412 57.8560483,73.8155294 C60.79106,73.9383529 63.3291061,73.7392941 65.1534587,72.8964706 C65.0225445,73.4004706 66.1500958,73.3327059 67.2227475,73.2437647 C68.2996223,73.1802353 69.3342667,73.0955294 69.0851074,73.7689412 C71.458455,72.5068235 74.3258981,71.9011765 77.3833779,70.7237647 C78.8952256,70.1223529 80.4535268,69.36 81.8217913,68.2418824 C83.1900557,67.128 84.2880457,65.5863529 84.8243716,63.8032941 C85.1664377,63.1764706 85.0439695,63.9303529 85.3353592,63.9769412 C85.428266,63.7312941 85.5000577,63.4687059 85.5845185,63.2188235 L85.7069866,62.8291765 L85.7914473,62.4141176 C85.8463468,62.1515294 85.9054694,61.8762353 85.9603689,61.5967059 C86.0152684,61.296 86.0743909,61.008 86.1292904,60.7072941 C86.3446654,59.5129412 86.5980477,58.3016471 86.7965305,57.0818824 C86.9992363,55.8663529 87.2019422,54.6465882 87.404648,53.448 C87.5862387,52.2451765 87.7636063,51.0635294 87.9409739,49.9242353 C88.61666,45.3628235 89.0600791,41.4578824 89.5077211,39.6748235 C89.0727482,38.4084706 89.275454,36.9727059 89.4781599,35.4945882 C89.6513044,34.0122353 89.820226,32.4790588 89.2290006,31.0771765 C89.2923462,30.4503529 89.7399882,30.6155294 90.0567161,30.5265882 C89.6935348,27.7397647 89.5626206,24 90.1791842,24.0635294 C89.2965692,22.8691765 90.0313779,21.7298824 89.3387996,20.3491765 C90.3396597,21.4672941 89.3050153,18.7058824 90.0736083,17.6258824 C89.9215789,17.6597647 89.2627849,11.5651765 89.1192016,9.05788235 C89.0178487,6.90635294 89.2121084,4.54305882 89.165655,2.49741176 L89.1192016,0.625411765 L90.7957478,0.714352941 C92.5440857,0.807529412 94.0643796,0.684705882 95.099024,0.096 C99.9090647,0.854117647 105.044279,1.19717647 110.200609,1.74776471 C115.348493,2.28564706 120.530161,3.11576471 125.154388,4.66164706 C124.888337,5.03435294 125.534462,5.27576471 125.471116,5.61882353 C126.526876,5.51717647 128.972015,6.42352941 131.488946,7.72376471 C132.726296,8.42682353 134.0101,9.13411765 135.124982,9.93035294 C135.399479,10.1209412 135.682423,10.3030588 135.944251,10.4809412 L136.146957,10.6164706 L136.244087,10.68 L136.290541,10.7138824 L136.370778,10.7731765 C136.586153,10.9298824 136.793082,11.1035294 137.004234,11.2898824 C137.426538,11.6668235 137.815057,12.1284706 138.106447,12.5858824 C138.393614,13.0475294 138.587873,13.4837647 138.739903,13.8395294 C139.090415,14.6738824 139.449373,14.5171765 139.538057,14.7797647 C139.246667,14.6145882 138.946832,14.4748235 138.642773,14.3392941 C138.575204,14.4451765 138.469628,14.5256471 138.30493,14.5256471 C138.199354,14.5256471 138.127562,14.4917647 138.059994,14.4451765 C137.967087,14.4367059 137.869957,14.4112941 137.789719,14.3435294 C137.789719,14.3435294 137.785496,14.3392941 137.781273,14.3392941 C137.751712,14.3562353 137.717927,14.3858824 137.684143,14.4070588 C137.629244,14.4451765 137.578567,14.4875294 137.515222,14.5214118 C137.392754,14.5891765 137.253393,14.6315294 137.126702,14.6569412 C136.902881,14.7331765 136.666391,14.7924706 136.421455,14.8263529 C136.210303,14.8602353 135.95692,14.9110588 135.703538,14.9491765 C135.44171,15.0338824 135.200997,15.1228235 134.985622,15.2117647 C134.423958,15.4489412 133.997431,15.6861176 133.613134,15.864 C132.836095,16.2409412 132.206862,16.4230588 130.914613,16.6178824 C127.527736,19.0997647 123.815685,22.1407059 121.096048,23.2037647 C119.791129,24.9317647 118.169483,26.4437647 117.1095,26.8461176 C117.016593,28.5571765 114.617907,29.328 115.057103,30.048" id="Fill-1" fill="#FFDD42" mask="url(#mask-2)"></path>
                    </g>
                    <path d="M139.66137,111.243247 C139.479779,112.700188 139.006799,113.847953 138.436689,114.707718 C137.866578,115.584424 137.216231,116.190071 136.54899,116.6856 C135.873304,117.172659 135.176503,117.596188 134.340341,118.002776 C133.512626,118.422071 132.541327,118.8456 131.299754,119.307247 C132.199261,118.705835 132.182369,118.489835 131.747396,118.570306 C131.3082,118.621129 130.421362,118.896424 129.466955,119.070071 C127.562365,119.455482 125.471961,119.607953 126.591066,118.951482 C124.838505,119.218306 124.010789,119.582541 123.267535,119.705365 C122.536949,119.819718 121.886601,119.679953 120.569013,118.705835 C120.670366,119.514776 119.399232,119.358071 117.672009,119.053129 C115.93634,118.752424 113.744583,118.307718 111.861108,118.697365 C113.085789,118.455953 111.236098,117.951953 112.460779,117.951953 C111.992022,117.587718 111.468365,117.744424 109.800265,117.325129 C110.116993,117.727482 110.898255,117.985835 111.903338,118.151012 C110.826464,118.019718 106.299366,117.951953 106.020646,117.032894 C105.0958,118.307718 101.666693,116.668659 99.5129437,116.799953 C93.1150405,115.156659 88.3556763,113.759012 83.5709738,112.734071 C78.7862713,111.730306 73.9720075,111.035718 67.6036656,111.052659 C57.9624689,109.151012 47.4048729,109.117129 40.7155801,110.027718 C40.9140629,109.515247 40.3312836,109.498306 39.9047567,109.383953 C39.7738425,109.383953 39.6344823,109.396659 39.5035681,109.405129 C39.2164015,109.904894 37.8903674,110.442776 37.4469484,109.578776 C37.1935661,109.604188 36.9401838,109.6296 36.6910245,109.646541 C36.4883187,109.722776 36.2813898,109.731247 36.0575687,109.722776 C35.1031621,109.811718 34.1740936,109.921835 33.2619173,110.036188 C33.1859026,110.150541 33.008535,110.252188 32.7424836,110.341129 C32.1470352,110.557129 31.1419521,110.739247 30.0059547,110.879012 C28.8699574,111.001835 27.6072689,111.158541 26.5008329,111.251718 C25.7786933,111.311012 25.1325684,111.366071 24.6342499,111.399953 C24.3259681,111.459247 24.0261324,111.514306 23.7220736,111.5736 C23.4771374,111.781129 23.654505,112.086071 23.654505,112.352894 C18.6670966,113.170306 15.3562345,113.932659 12.4676763,114.6696 C9.57489496,115.402306 7.10864053,116.156188 3.7724402,117.092188 L2.4083988,117.473365 L2.6068816,115.931718 C2.83070264,114.131718 3.20233002,111.920894 3.93291566,109.273835 C4.34677342,111.374541 4.46924154,107.694071 5.29695706,105.618776 C5.36452568,106.105835 5.66013836,106.376894 6.12044955,106.487012 C6.42028528,104.161835 7.46337576,101.235247 9.05968427,98.4230118 C10.6475467,95.6107765 12.7590659,92.9213647 14.9930532,90.8672471 C15.1535287,90.3251294 14.7776783,90.0794824 15.4618105,89.2408941 C16.1628349,89.9439529 16.6400382,88.1270118 18.5741898,85.4079529 C22.4805003,79.9486588 27.282095,73.5703059 33.118334,68.4286588 L33.3168168,68.2550118 C33.2999247,68.1025412 33.2534713,67.8950118 33.1816796,67.6874824 C32.9536355,67.0183059 32.5989003,66.2940706 32.2188268,65.6079529 C31.4417878,64.2272471 30.5507267,62.9312471 29.6596656,61.7792471 C27.8648743,59.4710118 26.0236295,57.7048941 24.1866078,56.8874824 C24.651142,56.6460706 23.8445417,55.8498353 23.0843948,55.0747765 C22.3242479,54.2997176 21.5936622,53.5458353 22.2693484,53.3044235 C19.7777557,52.2837176 17.4677537,50.4074824 14.7819013,48.3406588 C13.430529,47.3157176 11.998919,46.2357176 10.3983874,45.2658353 C8.81474805,44.3086588 7.01995673,43.3938353 5.16604287,43.0338353 C4.519918,42.7331294 5.26317275,42.8093647 5.29273402,42.5044235 C4.87465322,42.3943059 4.45657242,42.3096 4.04271466,42.2630118 C3.98359212,42.3138353 3.92869262,42.3604235 3.87801616,42.4112471 L3.81044755,42.2460706 C3.5528422,42.2291294 3.29101382,42.2248941 3.0460776,42.2460706 L0.00126691152,42.5552471 L2.37039145,40.5434824 C2.5519821,40.3825412 2.75891098,40.2300706 2.94894771,40.0776 L2.85604087,39.8531294 C2.99962417,39.8404235 3.12209229,39.8404235 3.25300648,39.8319529 C6.51741516,37.2611294 10.4532869,35.1816 14.0133083,33.8093647 C17.8985036,32.2931294 21.3022726,31.5646588 22.9830419,31.3825412 C24.0641397,30.5693647 25.5422031,30.3152471 27.0498278,30.1288941 C27.8057517,30.0314824 28.5658986,29.9298353 29.3049304,29.7392471 C30.0439621,29.5698353 30.7492095,29.3157176 31.3995574,28.8879529 C32.0499053,28.8328941 31.9569985,29.2987765 32.1048048,29.5994824 C33.4688462,29.1547765 35.094716,28.7947765 36.3869657,28.6338353 C37.6834385,28.4898353 38.6251761,28.5194824 38.6209531,28.8328941 C39.7653965,27.8376 40.9731854,28.5152471 42.3456729,27.7359529 C41.7924549,28.2738353 42.2274278,28.2272471 42.9326753,28.1721882 C43.6379227,28.1171294 44.6176676,28.0324235 45.1666626,28.4178353 C45.0315253,28.3797176 45.4876135,28.2780706 46.2857677,28.1848941 C47.079699,28.0917176 48.2072502,27.9900706 49.3812549,27.9053647 L51.2436148,27.7698353 L51.2562839,29.9637176 C51.2731761,31.5943059 51.2309457,33.3223059 51.1718232,34.3896 C50.8973257,38.3368941 49.613522,42.9237176 50.9606713,45.1345412 C50.2469778,49.8314824 50.386338,54.9265412 50.9226639,59.9496 C51.4547667,64.9768941 52.3711661,69.9194824 53.0933056,74.4808941 C52.6372175,74.4258353 52.7174552,75.0780706 52.3880582,75.1839529 C52.6710018,75.6117176 52.915938,76.4333647 53.131313,77.4794824 C53.3635801,78.5256 53.574732,79.7961882 53.7732148,81.1218353 C53.9885898,82.4432471 54.2124108,83.8197176 54.4151167,85.0776 C54.6473838,86.3354824 54.8712048,87.4790118 55.0908028,88.3260706 C55.107695,88.4023059 55.1288102,88.4531294 55.1583714,88.4954824 C55.3061778,88.5124235 55.4497611,88.5208941 55.555337,88.5208941 C56.1676776,88.5420706 56.1423394,89.3976 55.555337,89.4611294 C55.3188469,89.4865412 54.778298,89.4526588 54.4108936,89.5204235 C54.4615701,89.7406588 54.5164696,89.9651294 54.5755921,90.1811294 C54.8416435,90.8926588 55.3061778,91.6634824 55.6693591,92.4258353 C55.7031434,92.4766588 55.7327046,92.5232471 55.7664889,92.5656 C55.994533,92.9213647 56.1592315,93.2347765 56.3492682,93.5947765 C56.4379521,93.7811294 56.5181898,93.9886588 56.6110966,94.2173647 C56.7082265,94.4333647 56.8138025,94.6917176 56.9320475,94.9924235 C58.4987948,96.2799529 60.4118312,97.2540706 62.2319607,98.0968941 C64.0647594,98.9227765 65.7962051,99.6216 67.0377784,100.383953 C69.1830819,100.383953 71.3495006,100.6296 72.3419147,101.180188 C73.6932869,100.146776 75.8385905,101.447012 76.0835267,100.638071 C77.988117,101.794306 81.0920502,101.514776 83.8581404,101.087012 C86.6284536,100.671953 89.1116001,100.134071 90.0533377,101.015012 C94.4115133,99.8968941 99.4073677,99.7698353 103.043404,100.663482 C103.098303,100.117129 104.977555,99.4860706 106.827246,100.383953 C107.726753,99.1641882 112.997105,98.9481882 117.663563,99.8206588 C117.617109,99.5707765 118.748884,99.2658353 120.226947,99.1684235 C121.70501,99.0583059 123.537809,99.1641882 124.800498,99.6639529 L124.804721,99.6639529 C124.906074,99.6470118 125.003203,99.6470118 125.113002,99.6512471 C126.616404,99.5792471 128.326735,99.6470118 129.868144,99.9943059 C131.506683,100.350071 132.929847,101.070071 133.525295,101.921365 C133.694216,101.895953 133.926484,101.887482 134.192535,101.938306 C134.462809,101.993365 134.771091,102.095012 135.113157,102.2136 C135.446777,102.366071 135.805736,102.556659 136.17314,102.7896 C136.519429,103.052188 136.907949,103.306306 137.2289,103.674776 C137.925701,104.331247 138.41135,105.263012 138.698517,106.088894 C138.79987,106.512424 138.897,106.910541 138.913892,107.266306 C138.922338,107.626306 138.905446,107.935482 138.863215,108.181129 C139.125044,108.155718 139.285519,108.3336 139.331973,108.752894 C139.386872,109.184894 139.27285,109.794776 138.909669,110.591012 C138.888554,111.294071 139.357311,111.128894 139.66137,111.243247" id="Fill-4" fill="url(#linearGradient-3)"></path>
                    <path d="M138.85308,109.324235 L138.295639,109.298824 C138.295639,109.324235 136.762676,107.909647 136.85136,107.257412 C136.551524,106.588235 136.065875,105.923294 135.28039,105.330353 C135.770262,105.330353 135.673132,105.203294 135.356404,105.021176 C135.18326,104.949176 134.972108,104.847529 134.748287,104.750118 C134.532912,104.648471 134.287976,104.576471 134.110608,104.462118 C134.334429,104.411294 134.51602,104.237647 134.663826,103.962353 C133.646074,103.771765 132.472069,103.466824 131.205158,103.081412 C129.942469,102.687529 128.586874,102.234353 127.379085,101.628706 C127.134149,101.713412 127.104587,102.009882 126.648499,101.908235 C126.800529,101.285647 125.989705,101.590588 124.553872,101.573647 C121.648422,101.531294 118.236207,101.929412 114.904229,101.827765 C111.779181,101.730353 108.958191,101.150118 107.328099,102.158118 C107.437898,101.488941 105.334824,102.242824 105.583984,101.4 C103.426011,102.721412 100.292517,101.933647 96.6395884,102.683294 C96.2848532,102.632471 96.6438114,102.522353 96.601581,102.327529 C92.6234789,102.729882 87.2728892,103.178824 85.6554655,102.848471 C84.5828138,103.615059 83.0836351,102.632471 81.858954,103.492235 C81.5760104,103.466824 81.643579,103.170353 81.5971256,102.962824 C80.3682214,103.305882 78.6874522,103.377882 78.7296825,102.967059 C78.1764645,103.534588 77.6865921,103.047529 77.0446902,103.471059 C77.5852391,102.84 76.2887663,103.458353 75.8495704,102.886588 C76.0522762,103.022118 73.1510488,103.161882 71.9812672,102.996706 C70.1864759,102.780706 68.2987777,101.649882 67.1416652,102.331765 C65.1188298,101.459294 62.9101807,100.828235 60.7015316,99.9515294 C59.5950956,99.528 58.5182208,98.9858824 57.4793533,98.3717647 C56.4700471,97.7237647 55.5114174,96.9825882 54.7428244,96.0889412 C55.0046528,95.9491765 54.7977239,95.6908235 54.9581994,95.5341176 C54.7005941,95.4536471 54.3965353,95.1571765 54.0544692,94.7505882 C53.8728785,94.5515294 53.7377413,94.2889412 53.5688198,94.0221176 C53.4167904,93.7552941 53.2394228,93.48 53.1211777,93.1708235 C52.5341754,91.9595294 52.2892391,90.5534118 52.056972,89.7402353 C51.9851804,89.4861176 51.6684525,89.6512941 51.6515603,89.5750588 L51.617776,89.4734118 L51.617776,89.2447059 L51.617776,89.2404706 L51.6515603,89.5750588 L51.6557834,89.5750588 L51.6642294,89.5708235 L51.6768986,89.5708235 L51.7022368,89.5708235 L51.7698054,89.5623529 L51.8880505,89.5454118 L52.1372097,89.52 L52.6270822,89.4649412 L53.3027683,89.3802353 C53.2943223,89.3294118 53.2816532,89.2955294 53.2732071,89.2574118 C53.2774301,89.0668235 53.2943223,88.8847059 53.3154375,88.7025882 C53.3027683,88.7661176 53.2858762,88.8677647 53.268984,88.9905882 C53.154962,88.9609412 53.1042855,88.7745882 53.1085086,88.6009412 C53.1380698,88.4272941 53.2183076,88.2621176 53.3323296,88.2790588 C53.1676311,88.0164706 53.0367169,88.1562353 52.9226949,88.4188235 C52.8128959,88.6856471 52.7748885,89.0752941 52.719989,89.2489412 C52.6608665,88.224 52.7242121,87.6522353 52.8171189,87.1863529 C52.8973567,86.9745882 52.9775944,86.784 53.1085086,86.5934118 C53.264761,86.4197647 53.4421286,86.2334118 53.7419643,86.0597647 C54.1515991,85.0941176 55.021545,84.2470588 55.9421673,83.8277647 C56.8543436,83.3830588 57.770743,83.2729412 58.4422061,83.4296471 C59.2910368,82.8875294 60.3256812,82.7477647 60.8113306,82.9849412 C61.3012031,82.1378824 62.3865239,82.8324706 62.4414234,82.2988235 C63.3662688,82.9383529 64.700749,82.6969412 65.9634375,82.4978824 C67.2219029,82.2945882 68.3832385,82.1167059 68.7253046,82.7477647 C70.7396939,82.3030588 72.956789,82.7308235 74.3968451,83.688 C74.4855289,83.3449412 75.3808131,83.1374118 76.0522762,83.9167059 C76.6012712,83.2178824 78.8774889,83.6795294 80.760964,84.6494118 C80.7820792,84.3105882 82.851368,84.2809412 83.8480051,84.9967059 C85.2247156,84.9755294 86.9730535,85.2042353 87.5304946,86.0385882 C88.1006047,85.6150588 90.1952318,86.0724706 90.7991263,86.6654118 C90.883587,86.3392941 91.1749767,86.3350588 91.7324178,86.8475294 C92.0111383,86.8729412 91.9858001,86.568 92.0618148,86.3689412 C94.177557,86.7628235 94.2746869,87.504 96.4284365,87.6098824 C94.6083069,88.1731765 99.3043256,88.1477647 98.1641052,88.6941176 C99.7012912,88.8211765 99.785752,87.9910588 100.693705,89.3971765 C100.803504,88.3383529 102.779886,90.1341176 104.515555,89.6470588 C103.953891,89.7952941 104.73093,90.1383529 104.181935,90.1256471 C104.363526,90.3585882 104.608462,90.2738824 105.317932,90.5364706 C105.208133,90.2738824 104.878736,90.1087059 104.452209,89.9985882 C104.916744,90.1002353 106.918464,90.1087059 106.977586,90.7058824 C107.480128,89.8672941 108.890623,90.8837647 109.866145,90.7524706 C115.364541,92.6456471 118.04617,93.984 123.700818,94.2931765 C127.801389,95.7585882 132.303148,96.7157647 135.28039,97.0418824 C135.111468,97.3341176 135.343735,97.4357647 135.504211,97.5628235 C135.563333,97.5797647 135.626679,97.5882353 135.685801,97.6009412 C135.896953,97.3341176 136.526186,97.1943529 136.572639,97.7830588 C136.682438,97.8084706 136.800684,97.8338824 136.910483,97.8592941 C136.999166,97.8508235 137.079404,97.8677647 137.159642,97.9101176 C137.514377,97.9736471 137.869112,98.0583529 138.223847,98.1218824 C138.228071,98.1811765 138.228071,98.2404706 138.228071,98.2955294 C138.451892,98.4183529 138.536352,99.024 138.532129,99.7567059 C138.523683,100.637647 138.3801,101.662588 138.274524,102.208941 C138.274524,102.310588 138.274524,102.412235 138.270301,102.518118 C138.363208,102.666353 138.591252,102.624 138.768619,102.649412 C138.637705,104.394353 138.523683,105.694588 138.439222,106.791529 C138.473007,106.808471 138.506791,106.833882 138.536352,106.833882 C138.47723,106.905882 138.439222,106.965176 138.42233,107.032941 C138.418107,107.092235 138.413884,107.138824 138.413884,107.198118 C138.413884,107.223529 138.418107,107.248941 138.426553,107.274353 C138.451892,107.414118 138.549021,107.553882 138.625036,107.706353 C138.785512,107.994353 138.90798,108.316235 138.371654,108.532235 C138.578583,108.672 138.734835,108.951529 138.85308,109.324235" id="Fill-6" fill="#F08F21"></path>
                    <path d="M473.500157,91.2496941 C473.411473,91.4402824 473.327012,91.6308706 473.234105,91.8087529 C473.124306,91.9781647 473.022953,92.1475765 472.925823,92.3000471 C472.820247,92.4567529 472.727341,92.6049882 472.64288,92.7235765 C472.575311,92.8548706 472.503519,92.9776941 472.431728,93.0962824 C472.461289,93.2529882 472.672441,93.3122824 472.807578,93.4181647 C472.419059,94.0534588 471.979863,94.5574588 471.612458,95.0318118 C471.181708,95.4511059 470.848088,95.8746353 470.459569,96.1922824 C470.096388,96.5268706 469.758545,96.8318118 469.412255,97.0986353 C469.078635,97.3696941 468.761907,97.6365176 468.424064,97.8652235 C467.106476,98.8139294 465.788888,99.7372235 463.28885,100.872282 C463.559124,100.402165 463.381757,100.461459 463.031244,100.685929 C462.672286,100.893459 462.119068,101.240753 461.654534,101.401694 C461.793894,101.194165 461.785448,100.944282 461.667203,100.652047 C459.977988,102.015812 456.578442,102.646871 453.917927,102.049694 C453.698329,102.193694 453.732114,102.4944 453.25491,102.490165 C453.271803,101.837929 452.54544,102.3504 451.092715,102.532518 C448.178818,102.930635 444.703258,103.392282 441.333273,103.163576 C438.178663,102.939106 435.429465,102.075106 433.706466,102.922165 C433.87961,102.2784 431.708969,102.803576 432.046812,101.9904 C429.757925,103.083106 426.730006,101.926871 423.030625,102.252988 C422.688559,102.159812 423.060186,102.104753 423.034848,101.897224 C419.039853,101.829459 413.727271,101.871812 412.143632,101.516047 C411.066757,102.240282 409.597139,101.219576 408.393574,102.104753 C408.123299,102.079341 408.178199,101.778635 408.131745,101.575341 C406.923956,101.926871 405.310756,102.108988 405.314979,101.706635 C404.825106,102.308047 404.305672,101.871812 403.735562,102.358871 C404.183204,101.672753 403.013423,102.426635 402.515104,101.935341 C402.713587,102.011576 399.998173,102.634165 398.929745,102.837459 C398.106252,102.981459 397.18563,102.968753 396.395921,103.121224 C395.99051,103.184753 395.635775,103.2864 395.344385,103.451576 C395.048772,103.612518 394.824951,103.832753 394.723598,104.129224 C393.482025,104.336753 392.295351,104.972047 391.535204,105.916518 C390.800396,106.873694 389.63906,106.577224 389.761528,107.809694 L388.275019,110.160282 L387.894945,109.690165 C387.371288,108.165459 387.050337,106.5984 386.974323,105.120282 C387.265712,105.166871 387.265712,104.861929 387.49798,104.832282 C387.185475,104.408753 387.16436,103.244047 387.274159,102.028518 C387.324835,101.422871 387.396627,100.804518 387.464195,100.241224 C387.49798,99.9616941 387.523318,99.6948706 387.54021,99.4534588 C387.548656,99.2882824 387.557102,99.1400471 387.569771,98.9918118 C387.590886,98.7292235 387.645786,98.4793412 387.709131,98.2548706 C387.878053,97.7254588 387.544433,97.7212235 387.607779,97.5560471 C387.983629,98.0049882 388.405933,98.3946353 388.862021,98.7376941 C388.862021,98.7038118 388.866244,98.6699294 388.870467,98.6360471 C389.060504,98.5936941 389.250541,98.5598118 389.440577,98.5216941 C389.360339,98.5301647 389.254764,98.5471059 389.11118,98.5640471 C388.980266,98.3946353 389.664398,98.2167529 389.799535,98.4115765 C390.052918,97.9499294 388.870467,98.2082824 388.448163,98.2760471 C390.323192,97.5687529 390.711712,97.2045176 391.805479,97.5814588 C393.562263,96.8741647 395.65689,96.3828706 396.974478,96.7344 C397.814862,96.2219294 398.777715,95.9932235 399.28448,96.1711059 C399.651884,95.2944 400.792104,95.7984 400.754097,95.2605176 C402.76004,96.2049882 405.792182,93.1216941 406.831049,94.1042824 C408.579387,93.0624 410.741583,92.6769882 412.435021,93.0285176 C412.388568,92.6727529 413.1276,92.1433412 414.039776,92.6049882 C414.280489,91.7494588 416.518699,91.2835765 418.621773,91.3852235 C418.511974,91.0760471 420.365887,90.1908706 421.561007,90.4153412 C422.794134,89.8181647 424.462235,89.2718118 425.323734,89.7758118 C425.661578,89.1616941 427.726643,88.6576941 428.529021,88.9245176 C428.457229,88.5941647 428.719057,88.4628706 429.441197,88.6788706 C429.707248,88.5772235 429.555219,88.3146353 429.525658,88.1028706 C431.594947,87.5184 432.008804,88.1409882 433.989409,87.2854588 C432.60003,88.5941647 436.801953,86.4934588 436.020691,87.4845176 C437.456524,86.9254588 437.165134,86.1461647 438.592521,87.0059294 C438.233563,86.0064 440.788501,86.7518118 442.139873,85.5574588 C441.700677,85.9301647 442.545285,85.9047529 442.046967,86.1292235 C442.308795,86.2689882 442.490386,86.0784 443.246309,86.0233412 C443.030934,85.8242824 442.671976,85.8158118 442.23278,85.8962824 C442.697314,85.7904 444.517444,84.9433412 444.813057,85.4515765 C444.922856,84.4816941 446.628963,84.8078118 447.465125,84.2784 C450.366352,83.9988706 452.570778,83.9268706 454.716082,83.7235765 C456.865608,83.5329882 458.93912,83.1687529 461.730549,82.5249882 C463.926528,82.6647529 466.185854,82.8002824 468.246697,83.2195765 C469.272895,83.4313412 470.248417,83.7278118 471.11414,84.1428706 C471.97564,84.5579294 472.706225,85.1296941 473.234105,85.7565176 C472.913154,85.8666353 473.01873,86.0953412 473.035622,86.3028706 C473.065184,86.3621647 473.103191,86.4172235 473.136975,86.4807529 C473.276335,86.4765176 473.445257,86.5358118 473.571948,86.6586353 C473.745093,86.8322824 473.774654,87.0991059 473.500157,87.2939294 C473.538164,87.4040471 473.571948,87.5184 473.601509,87.6412235 C473.64374,87.7089882 473.664855,87.7894588 473.664855,87.8784 C473.757762,88.2680471 473.804215,88.6831059 473.82533,89.1235765 C473.871784,89.1489882 473.914014,89.1871059 473.947799,89.2548706 L473.947799,89.2718118 C474.015367,89.6318118 473.876007,90.4788706 473.500157,91.2496941" id="Fill-8" fill="#F08F21"></path>
                    <g id="Group-12" transform="translate(47.333222, 0.445553)">
                        <mask id="mask-5" fill="white">
                            <use xlink:href="#path-4"></use>
                        </mask>
                        <g id="Clip-11"></g>
                        <path d="M427.746351,6.85934118 C422.868742,-4.04654118 411.597452,1.89981176 406.200409,4.62310588 C401.153878,7.17275294 323.618893,27.6673412 206.932119,30.3016941 C70.1098981,30.2762824 30.1852931,7.06687059 24.7966961,4.34357647 C19.4038761,1.61604706 8.13258658,-4.32607059 3.25075419,6.57981176 C-1.62685516,17.4814588 0.172159199,66.8056941 1.27437222,78.0207529 C2.3723622,89.2400471 6.72209175,94.3012235 6.72209175,94.3012235 C6.72209175,94.3012235 -3.19782544,80.9092235 51.845257,91.6456941 C106.284445,102.259341 155.841801,106.867341 207.502229,106.968988 L207.599359,107.269694 C259.880575,107.269694 324.108766,102.657459 379.151848,91.9252235 C434.19493,81.1929882 424.279236,94.5849882 424.279236,94.5849882 C424.279236,94.5849882 428.624743,89.5195765 429.726956,78.3045176 C430.824946,67.0852235 432.62396,17.7609882 427.746351,6.85934118" id="Fill-10" fill="url(#linearGradient-6)" mask="url(#mask-5)"></path>
                    </g>
                </g>
                <text id="助力达人榜" font-family="PingFangSC-Semibold, PingFang SC" font-size="32" font-weight="500" fill="#BF3142">
                    <tspan x="183.5" y="72">助力达人榜</tspan>
                </text>
            </g>
        </g>
    </g>
</svg>